<svg width="26" height="26" fill="none" xmlns="http://www.w3.org/2000/svg"><path d="M4.07.25A3.835 3.835 0 0 0 .25 4.07v2.194a1.042 1.042 0 1 0 2.083 0V4.069A1.72 1.72 0 0 1 4.07 2.333h17.36a1.72 1.72 0 0 1 1.737 1.736v9.375a1.04 1.04 0 0 0 1.783.747 1.042 1.042 0 0 0 .3-.747V4.07A3.835 3.835 0 0 0 21.43.25H4.07Zm8.793 4.168c-2.444.017-4.327.844-5.6 2.46-1.12 1.426-1.699 3.4-1.72 5.88.02 2.466.6 4.439 1.72 5.864 1.272 1.616 3.156 2.443 5.613 2.46 2.172-.015 3.708-.589 4.978-1.858 1.687-1.686 1.634-3.801 1.077-5.101-.403-.94-1.165-1.699-2.206-2.198l-.074-.035c-.183-2.347-1.538-3.696-3.764-3.71-1.35 0-2.475.58-3.17 1.634a.26.26 0 0 0 .07.358l1.16.794a.26.26 0 0 0 .364-.071c.42-.636 1.089-.768 1.595-.768.615.003 1.072.174 1.359.507.155.18.273.415.355.701a9.488 9.488 0 0 0-1.67-.044c-2.156.124-3.544 1.402-3.448 3.18.048.907.499 1.688 1.27 2.199.638.42 1.457.628 2.308.58 1.125-.061 2.01-.494 2.632-1.287.398-.506.667-1.128.818-1.892.293.237.508.514.643.829.316.734.333 1.945-.662 2.938-.898.897-1.988 1.287-3.639 1.299-1.835-.014-3.217-.596-4.108-1.73-.847-1.076-1.285-2.643-1.3-4.654.015-2.016.453-3.584 1.3-4.66.891-1.134 2.274-1.717 4.104-1.73 1.85.014 3.258.6 4.186 1.742.453.558.8 1.265 1.032 2.103a.263.263 0 0 0 .319.183l1.357-.362a.26.26 0 0 0 .183-.321c-.299-1.101-.774-2.056-1.413-2.842-1.307-1.607-3.209-2.431-5.67-2.448ZM1.275 9.196A1.042 1.042 0 0 0 .25 10.253v11.178a3.835 3.835 0 0 0 3.82 3.819h17.36a3.835 3.835 0 0 0 3.82-3.82v-2.578a1.044 1.044 0 0 0-1.042-1.056 1.041 1.041 0 0 0-1.041 1.056v2.579a1.72 1.72 0 0 1-1.737 1.736H4.07a1.72 1.72 0 0 1-1.737-1.736V10.253a1.042 1.042 0 0 0-1.058-1.057Zm12.255 4.022c.415 0 .81.032 1.179.098-.198 1.676-.984 1.95-1.735 1.992-.515.02-.993-.109-1.28-.365a.81.81 0 0 1-.28-.578c-.026-.5.391-1.06 1.644-1.133.16-.01.317-.014.472-.014Z" fill="#fff"/></svg>